# xmcd
#
# Track frame offsets: 
#        187
#        14590
#        30902
#        46117
#        58112
#        65242
#        79652
#        92437
#        107170
#        118587
#        128130
#        146040
#
# Disc length: 2136 seconds
#
# Revision: 3
# Processed by: cddbd v1.5.2PL0 Copyright (c) Steve Scherf et al.
# Submitted via: ExactAudioCopy v1.0b3
#
DISCID=9f08560c
DTITLE=Todd Rundgren - Hermit Of Mink Hollow
DYEAR=1978
DGENRE=Rock
TTITLE0=All The Children Sing
TTITLE1=Can We Still Be Friends
TTITLE2=Hurting For You
TTITLE3=Too Far Gone
TTITLE4=Onomatopoeia
TTITLE5=Determination
TTITLE6=Bread
TTITLE7=Bag Lady
TTITLE8=You Cried Wolf
TTITLE9=Lucky Guy
TTITLE10=Out Of Control
TTITLE11=Fade Away
EXTD=YEAR: 1988
EXTT0=T. Rundgren
EXTT1=T. Rundgren
EXTT2=T. Rundgren
EXTT3=T. Rundgren
EXTT4=T. Rundgren
EXTT5=T. Rundgren
EXTT6=T. Rundgren
EXTT7=T. Rundgren
EXTT8=T. Rundgren
EXTT9=T. Rundgren
EXTT10=T. Rundgren
EXTT11=T. Rundgren
PLAYORDER=
